<?xml version="1.0" encoding="UTF-8" standalone="no"?>
<svg
   viewBox="0 0 41.738171 39.521538"
   version="1.1"
   id="svg10"
   sodipodi:docname="295860beaa5c80f427ca012b50e46634.svg"
   width="41.738171"
   height="39.521538"
   inkscape:version="1.1.1 (3bf5ae0d25, 2021-09-20)"
   xmlns:inkscape="http://www.inkscape.org/namespaces/inkscape"
   xmlns:sodipodi="http://sodipodi.sourceforge.net/DTD/sodipodi-0.dtd"
   xmlns="http://www.w3.org/2000/svg"
   xmlns:svg="http://www.w3.org/2000/svg">
  <defs
     id="defs14" />
  <sodipodi:namedview
     id="namedview12"
     pagecolor="#ffffff"
     bordercolor="#666666"
     borderopacity="1.0"
     inkscape:pageshadow="2"
     inkscape:pageopacity="0.0"
     inkscape:pagecheckerboard="0"
     showgrid="false"
     inkscape:object-nodes="false"
     inkscape:zoom="11.555556"
     inkscape:cx="19.427885"
     inkscape:cy="17.004808"
     inkscape:window-width="1920"
     inkscape:window-height="1017"
     inkscape:window-x="-8"
     inkscape:window-y="-8"
     inkscape:window-maximized="1"
     inkscape:current-layer="svg10" />
  <path
     fill="#66757f"
     d="m 11.533279,30.521537 c 0,0 -1.9999994,4 -1.9999994,6 0,2 3.9999994,3 11.9999994,3 8,0 12,-1 12,-3 0,-2 -2,-6 -2,-6 z m 1,-21.0000004 c -2.9999994,0 -2.9999994,1.0000004 -3.9999994,10.0000004 -0.994,8.945 0,10 3.9999994,10 2,0 2,-20.0000004 0,-20.0000004 z m 18,0 c 3,0 3,1.0000004 4,10.0000004 0.994,8.945 0,10 -4,10 -2,0 -2,-20.0000004 0,-20.0000004 z"
     id="path2" />
  <path
     fill="#ccd6dd"
     d="m 11.533279,6.5215368 c 0,0 1,-3 10,-3 9,0 10,3 10,3 0,0 1,6.0000002 1,14.0000002 0,8 -1,14 -1,14 0,0 -1,2 -10,2 -9,0 -10,-2 -10,-2 0,0 -0.999999,-3 -0.999999,-14 0,-11.0000004 0.999999,-14.0000002 0.999999,-14.0000002 z"
     id="path4" />
  <path
     fill="#66757f"
     d="m 31.533279,11.521537 c 0,-1 -3,-4.0000002 -10,-4.0000002 -7,0 -10,3.0000002 -10,4.0000002 0,0.807 4.548,1.612 6.311,1.894 0.688,2.654 0.689,8.106 0.689,8.106 0.805,-3.218 0.315,-7.079 0.093,-8.467 0.202,-0.591 0.848,-1.533 2.907,-1.533 3,0 3,2 3,2 h 0.002 c -0.234,1.657 -0.566,5.089 0.162,8 0,0 0.002,-5.491 0.697,-8.134 1.866,-0.304 6.139,-1.084 6.139,-1.866 z"
     id="path6" />
  <path
     fill="#66757f"
     d="m 17.533279,23.521537 c 0,-1 2,-3 4,-3 2,0 4,2 4,3 0,1 -1,1 -4,1 -3,0 -4,0 -4,-1 z m -2,4 c 0,0 2,-2 6,-2 4,0 6,2 6,2 0,0 -2,-1 -6,-1 -4,0 -6,1 -6,1 z m 0,2 c 0,-1 2,-2 6,-2 4,0 6,1 6,2 0,1 -1,1 -6,1 -5,0 -6,0 -6,-1 z"
     id="path8" />
  <g
     id="g13544"
     fill-rule="evenodd"
     transform="matrix(0.05337751,0,0,0.05337751,-0.48506148,-2.5537936)">
    <path
       id="path5992"
       fill="#91b4c3"
       d="m 445.97,47.844 c -21.28,0.063 -26.93,4.851 -38.97,7.039 -28.12,-4.753 -59.79,-7.984 -89.01,2.63 -17.61,5.524 -53.13,35.889 -49.1,37.875 -7.89,6.342 -37.34,19.292 -50.71,35.382 -17.18,16.04 -25.39,33.35 -28.73,42.82 -20.23,7.85 -28.76,30.84 -39.87,59.26 -6.6,16.87 -23.83,63.23 -39.5,95.27 -11.955,28.58 -49.192,71.02 -81.008,103.33 -9.261,11.93 -26.848,22.51 -17.157,22.6 3.215,2.03 45.166,-17.9 54.447,-24.04 -7.149,13.33 -31.941,21.93 -37.369,30.04 18.504,-1.07 38.491,-9.64 52.81,-20.57 13.368,-9.26 28.347,-32.15 34.047,-33.1 -5.94,26.95 -5.11,81.54 -7.29,95.35 -0.92,15.05 2.55,36.69 6.5,50.77 2.15,7.66 5.04,12.84 9.23,14.6 2.54,-4.71 -6.22,-34.43 -2.07,-56 1.48,5.47 2.37,15.16 6.72,36.76 9.4,25.44 21.2,42.01 22.45,20.22 10.16,-47.74 12.81,-110.43 17.47,-129.53 3.81,-15.62 23.79,-94.98 33.68,-114.59 2.8,4.83 3.09,5.11 4.03,9.56 -6.23,9.64 -11.68,34.26 -15.13,53.95 -4.3,24.41 -2.22,104.81 1.73,125.11 0.79,4.07 8.7,30.07 17.08,44.27 11.49,21.12 13.41,9.55 14.24,-4.55 -2.44,-4.75 -3.9,-26.13 2.08,-31.04 7.6,-10.34 10.78,-16.53 13.6,-18.93 4.54,-5 5.79,-4.13 6.61,-3.75 0.79,0.25 2.97,-0.3 3.74,-0.09 -1.04,-7.51 -12.14,-58.35 -9.57,-85.57 -1.99,-5.75 -14.92,-22.37 -10.68,-43.14 11.25,7.13 16.73,7.58 24.44,2.01 -3.42,-7.27 -26.34,-68.15 -16.13,-103.62 0.76,1.39 4.7,38.65 24.74,40.39 4.79,-3.31 6.65,-11.1 17.97,-10.86 -6.15,-12.03 -17.24,-32.09 -5.86,-70.09 1.16,6.68 1.19,20.92 4.7,39.36 1.46,7.34 23.06,42.39 30.15,24.36 -7.21,-14.29 -6.87,-94.23 20.72,-122.21 4.68,6.04 16.22,113.19 52.23,113.7 5.27,-11.01 -10.14,-44.76 -9.81,-59.48 -3.27,-13.96 -7.68,-24.4 -5.96,-35.13 33.13,34.35 29.28,82.33 43.95,83.98 5.75,0.04 14.06,-0.59 19.81,0.41 4.39,-32.68 -3.67,-63.43 -10.72,-77.05 19.57,15.4 22.4,32.27 26.6,35.53 15.94,27.41 11.82,59.19 29.56,82.52 7.3,8.9 13.92,-18.48 17.66,-20.75 2.49,24.95 -16.8,49.23 -15.72,65.51 -0.24,14.04 28.4,4.33 38.6,-25.03 15.68,-9.81 44.49,-18.59 48.54,25.86 4.31,-7.77 9.8,-21.81 10.24,-32.31 1.34,63.34 -3.88,100.84 -8.6,116.84 -6.17,17.16 -10,63.94 -14.53,95.97 -2.8,25.52 -18.29,45.63 -13.84,49.05 6.82,0.07 22.92,-18.91 34.55,-49.47 -1.44,10.8 -1.18,24.4 -1.15,28.56 17.6,-46.63 35.72,-112.53 35.87,-122.87 7.99,-29.33 8.13,-97.09 10.78,-105.54 4.68,44.83 9.39,78.38 10.27,150.05 -0.16,74.47 -7.92,86.14 -0.84,101.87 38.99,-33.8 36.21,-88.52 41.24,-118.39 3.11,14.58 3.6,61.44 4.69,96.44 16.42,-83.08 11.48,-157.67 11.36,-190.46 11.7,47.39 77.75,79.37 77.06,56.22 10.34,4.23 48.58,-1.29 14.03,-16.21 C 760.24,410.69 729.58,365.43 718.7,344.62 696.2,307.54 681.05,256.4 676.63,243.91 668.43,211.26 646.34,177.44 628.6,160.79 618.38,139.51 597.63,106.41 550.58,96.915 505.02,42.412 467.08,50.261 445.97,47.844 Z" />
    <g
       id="g13498"
       fill="#5f8291">
      <path
         id="path5998"
         d="m 525.22,71.465 c 5.44,7.384 11.11,18.702 13.49,27.221 -4.47,-2.199 -27.21,-15.936 -62.59,-12.261 2.39,4.179 16.04,5.065 20.84,6.364 36.88,9.921 39.54,38.031 52.76,59.231 -6.16,-4.07 -14.63,-4.07 -29.94,-19.45 -7.65,10.39 15.9,5.12 33.14,104.28 -11.28,-17.91 -25.28,-43.13 -33.81,-57.94 2.4,4.98 12.68,94.62 -15.72,128.85 -2.95,-8.1 -2.19,-29.08 -7.4,-35.44 -3.81,-29.92 -2.29,-58.6 -24.51,-90.8 -16.57,-11.87 -10.39,-5.04 -0.97,11.33 9.65,20.09 12.44,59.89 4,84.03 -7.4,-19.81 -19.06,-39.5 -32.63,-53.13 17.74,28.25 15.27,44.17 23.04,67.18 9.91,10.28 9.82,19.31 13.5,24.76 5.04,1.11 10.9,-14.15 15.11,-23.16 1.53,28.54 -22.83,64.35 -13.65,70.86 1.63,2.98 12.34,1.3 16.35,-1.82 12.03,-9.36 14.43,-13.83 22.73,-29.56 6.16,-2.92 24.14,-12.36 36.83,0.14 7.49,9.45 9.32,22.99 9.74,27.68 5.13,-9.78 12.93,-29.98 9.23,-43.66 0,-10.14 0.44,-43.89 0.49,-58.25 7.58,5.48 10.69,97.32 13.69,125.36 3.98,28.39 -3.92,53.68 -8,75.22 -7.29,38.51 -14.62,77.13 -28.03,107.23 -3.65,8.2 -6.96,16.62 -11.52,22.23 11.91,-4.66 23.52,-30.54 29.95,-42.43 0.4,7.16 -0.18,19.04 0.59,22.69 11.89,-30.92 30.55,-90.24 37.9,-129.28 7.13,-26.93 5.06,-60.36 8.48,-99.37 2.2,6.89 5.7,63.84 10.06,133.56 1.41,52.73 -8.9,101.67 -0.1,119.11 38.38,-43.75 33.19,-62.23 40.64,-112.53 6.76,39.07 2.37,83.76 5.03,90.94 4.92,-13.37 9.7,-63.33 12.11,-100.44 0.59,-35.68 -0.15,-70.41 0.44,-87.78 1.79,7.28 4,16.86 20.27,33.5 1.56,2.63 9.73,11.26 15.56,13.9 26.02,19.45 43.14,14.17 38.78,6.87 14.18,1.26 30.83,0.26 29.48,-8.19 -4.18,-8.81 -16.64,-3.69 -36.28,-30.87 -19.53,-24.25 -27.33,-36.19 -44.07,-68.73 -15.71,-30.58 -30.33,-79.59 -33.27,-84.37 -8.5,-34.84 -37.99,-76.42 -48.46,-83 -4.65,-12.77 -25.08,-54.32 -78.63,-65.168 -4.21,-7.392 -14.34,-16.245 -24.65,-24.907 z" />
      <path
         id="path6001"
         d="m 215.04,207.55 c -7.79,0.54 -13.7,7.98 -19,16.5 -9.54,17.46 -23.65,52.55 -20,80.83 0.7,5.32 7.28,16.71 6.49,16.71 -22,-19.61 -16.76,-45.55 -16.73,-77.91 -1.52,-1.25 -4.12,2.28 -5.72,12.65 -5.07,7.19 -5.5,11.69 -1.89,12.72 1.5,-1.76 3.16,-5.64 5.09,-8.18 -0.87,-0.36 -4.87,19.76 -5.64,29.61 -0.8,10.3 -1.12,20.96 0.8,28.8 2.49,10.18 6.39,14.83 12,20 -1.82,4.04 -2.75,8.98 -4.8,12.8 3.88,-2 5.42,-10.57 8,-11.2 -2.34,23.26 -14.59,36.62 -20,56.82 -18.85,37.74 -20.66,135.53 -16,163.22 0.7,4.19 9.08,31.01 13.14,11.28 4.32,-22.02 9.44,-62.01 11.77,-88.13 3.3,-27.97 8.45,-58.24 14.61,-80.37 7.04,-25.25 15.62,-57.29 25.69,-77.76 -3.41,-15.34 -3.65,-31.09 -3.54,-43.09 0.93,-7.11 1.7,-17.36 1.53,-34.8 2.98,-16.83 7.11,-28.8 14.2,-40.5 z" />
      <path
         id="path6004"
         d="m 148.81,233.68 c 8.73,-22.18 16.57,-50.7 40.2,-59.7 -1.89,3.72 -4.83,20.48 -3.52,20.12 -7.88,9.99 -12.37,22.73 -16.62,35.18 -6.56,1.18 -13.21,3.52 -20.06,4.4 z" />
      <path
         id="path6007"
         d="m 277.66,206.45 c -12.74,16.37 -18.11,29.84 -17.1,47.07 -1.4,25.05 0.26,37.69 8.25,48.29 2.82,-2.2 6.19,-3.66 11.43,-5.35 -3.45,-9.28 -7.72,-17.17 -9.7,-39.85 0.83,-11.76 10.26,-42.71 7.12,-50.16 z" />
      <path
         id="path6010"
         d="m 327.72,171.34 c -14.47,12.02 -33.26,34.81 -33.06,61.31 -3.62,21.87 -2.23,47.51 6.2,61.03 4.37,5.7 8.15,0.86 9.76,-0.51 -7.09,-16.7 -4.92,-36.02 -2.13,-57.82 2.53,-23.25 3.74,-41.23 19.23,-64.01 z" />
      <path
         id="path6013"
         d="m 406.18,55.145 c -5.76,3.981 -33.28,23.97 -38.93,32.355 -4.5,-3.25 -19.06,0.314 -20.28,-1.952 -0.97,-1.798 2.86,-3.049 9.03,-5.048 3.26,-0.983 5.2,-2.668 10.5,-3.25 -0.15,-2.993 -8.95,-1.027 -14.6,-1.089 -6.61,-0.048 -8.22,0.22 -8.76,-1.742 -1.29,-1.983 13.9,-8.568 23.05,-10.053 4.33,-0.687 11.01,-0.568 17.1,-0.352 -1.12,-2.237 -16.79,-7.107 -15.75,-8.667 0.24,-1.759 5.55,-1.438 13.23,-3.469 13.68,1.549 20.29,1.765 25.41,3.267 z" />
      <path
         id="path6016"
         d="m 241.66,208.05 c -12.4,14.99 -12.97,23.67 -18.42,33.6 -6.45,11.74 -8.05,42.01 -3.2,65.63 10.02,46.6 12.9,56.04 26.76,68.39 1.87,-0.26 6.27,-2.31 7.77,-2.94 -9.12,-19.3 -24.69,-74.83 -16.87,-104.34 0.23,-9.34 -2.28,-36.54 1.57,-41.94 0.79,-1.02 2.24,-9.12 3.07,-10.55 0.04,0.05 0.08,0.1 0.13,0.15 3.19,-4.82 2.98,-10.55 -0.81,-8 z" />
      <path
         id="path6019"
         d="m 190.45,392.36 c 1.74,-21.73 9.9,-50.23 15.9,-58.82 5.29,14.72 9.15,27.02 24.15,36.46 -6.13,14.7 6.7,33.51 13.52,43.82 -8.98,0.62 2.21,75 5.84,80.7 0.19,1.76 0.61,3.43 0.21,3.88 -5.12,0.68 -2.9,-0.51 -5.09,-0.03 -5.45,1.94 -12.58,15.25 -18.64,23.22 -3.76,5.33 -5.82,16.21 -1.65,31.07 -0.49,0.96 -0.01,0.44 -0.64,1.06 -18.53,-23.61 -22.83,-150.53 -12,-189.64 -5.41,3.92 -7.32,11.35 -13.6,14.4 -2.23,4.45 -3.75,11.19 -8,13.88 z" />
      <path
         id="path6022"
         d="m 120.84,368.08 c 1.71,-14.9 -0.71,29.51 -5.34,35.42 -40,51 -70.099,56.6 -86.999,56.78 C 32.903,453.23 50,449.75 65.5,431 c 1.693,-2.05 -49.479,24.28 -54.06,23.53 16.179,-9.16 33.088,-19.78 50.175,-28.03 46.315,-32.23 53.505,-49.15 59.225,-58.42 z" />
      <path
         id="path6025"
         d="m 360.89,168.05 c -4.18,14.32 -6.1,38.95 -2.4,56.8 0.53,9.08 14.99,42.36 21.6,57.63 2.11,3.12 4.63,-0.66 4.24,-8.66 -3.48,-18.41 -10.75,-42.67 -11.93,-49.93 -0.63,-7.7 -8.41,-27.8 -5.02,-36.8 -2.08,-4.05 -1.68,-17.39 -6.49,-19.04 z" />
      <path
         id="path6028"
         d="m 391.91,170.56 c -1.88,2 35.92,60.03 24.98,98.11 -7.45,-1.05 -10.24,-5.75 -15.23,-8.23 0.82,5.21 1.58,8.97 8.15,11.54 6.93,0.94 13.57,1.3 20.68,-0.2 5.02,-16.43 1.56,-56.85 -14.28,-82.89 -9.94,-10.83 -21.73,-19.63 -24.3,-18.33 z" />
      <path
         id="path6031"
         d="m 125.03,423.28 c -0.59,7.14 -2.36,36.7 -2.36,38.83 -0.42,19.52 -0.96,32.6 -1.47,35.82 0,11.47 -0.71,22.14 -1.97,33.39 -7.67,-33.91 -0.42,-92.06 0.8,-97.62 0.78,-3.56 2.53,-7.6 5,-10.42 z" />
    </g>
    <g
       id="g13532"
       fill="#dee9ed">
      <path
         id="path6037"
         d="m 534.11,115.57 c -0.49,-2.29 -1.61,-1.73 -1.92,0.02 0.58,14.57 -0.09,20.37 -3.25,26.47 -3.1,4.77 -8.72,16.21 -19.41,24.86 0.18,0.62 0.57,1.6 1.35,1.62 13.15,-9.34 15.75,-19.13 19.71,-24.24 4.93,-9.36 4.2,-22.58 3.52,-28.73 z" />
      <path
         id="path6040"
         d="m 209.09,141.07 c -3,1.97 -6.81,8.02 -10.51,13.39 -4.19,19.55 -4.32,47.28 -5.74,69.59 4.14,-3.81 12.12,-19.46 20.8,-27.2 0.51,3.22 -3.88,20.68 5.6,49.6 3.98,-3.31 8.73,-25.91 19.22,-36.8 0.57,7.87 7.61,27.16 11.8,36.98 4.28,-6.68 5.61,-15.23 21.8,-32.98 0,0.27 11.57,21.78 15.2,26.43 3.11,-3.32 10.34,-11.58 22.42,-16.37 0.46,-1.4 0.91,-5.72 0.91,-6.25 -9.95,1.08 -22.91,10.74 -25.73,14.59 -1.35,-6.19 -7.36,-11.15 -12.8,-28.8 -6.62,7.17 -16.54,18.11 -24,28 -1.72,-5.21 -8.14,-18.32 -6.84,-34.45 -13.12,14.33 -16.92,22.44 -22.78,36.05 -4.48,-16.8 2.5,-36.52 -0.8,-54.4 -6.42,6.92 -14.02,16.91 -20,21.6 -0.22,-21.55 4.52,-44.57 11.45,-58.98 z" />
      <path
         id="path6043"
         d="m 341.05,211.47 c 3.59,2.81 11.18,10.56 17.43,13.38 3.41,0.59 4.76,3.24 7.2,4.8 1.47,-2.51 3.32,-12.64 5.7,-9.22 0.42,0.65 1.38,3.02 1.35,4.12 -3.93,2.9 -6.59,10.12 -8.47,14.36 -2.26,-2.43 -14.86,-11.72 -20.91,-16.13 -0.66,-3.87 -2.18,-6.9 -2.3,-11.31 z" />
      <path
         id="path6046"
         d="m 130.39,281.34 c -1.04,2.12 -1.56,3.39 -2.93,5.79 0.9,20.36 -2.64,36.65 -3.42,55.35 4.11,-4.29 5.21,-13.21 6.4,-12.8 2.09,-4.23 4.22,-8.39 6.12,-12.8 -1.21,15.51 -4.9,49.48 -4.62,62.57 -0.35,1.96 -0.63,4 -0.7,6.25 5.99,-9.48 10.9,-20.05 12.8,-33.62 1.87,18.66 -0.02,41.1 1.6,60.02 4.82,-2.65 4.25,-10.68 8,-14.4 5.41,-20.2 17.66,-33.56 20,-56.82 -2.58,0.63 -4.12,9.2 -8,11.2 -7.29,12.44 -14.68,24.81 -18.4,40.82 -1.65,-18.45 -0.9,-45.71 0,-61.62 -2.7,0.5 -7.57,28.15 -12,36.8 -0.06,1.84 -0.24,1.68 -0.55,1.14 0.68,-5.4 1.27,-12.38 1.35,-21.14 -0.25,-9.32 3.59,-33.55 4.65,-44.68 1.04,-5.99 2.09,-11.96 2.55,-18.52 -6.5,11.37 -9.67,26.05 -14.4,39.2 -0.06,-11.54 1.03,-29.12 1.55,-42.74 z" />
      <path
         id="path6049"
         d="m 508.12,173.64 c 0.41,9.57 1.99,20.58 -3.05,33.51 -1.39,3.57 -2.72,21.17 -8.96,24.1 -4.68,-6.51 -4.88,-17.52 -7.2,-26.4 5.39,3.15 4.95,12.12 9.61,16 5.19,-12.82 7.07,-24.55 9.6,-47.21 z" />
      <path
         id="path6052"
         d="m 636.15,294.47 c 0.93,-0.13 1.42,0.17 1.6,0.8 0.77,16.87 -1.43,33.1 -4,46.41 -0.66,3.37 0.55,7.47 -2.4,9.6 -2.41,-7.71 -3.54,-15.16 -5.61,-22.4 -1.97,-6.91 -5.68,-13.6 -5.6,-21.61 4.38,11.09 10.15,20.79 11.2,35.21 4.5,-13.11 4.81,-30.4 4.81,-48.01 z" />
      <path
         id="path6055"
         d="m 588.94,383.29 c -1.86,3.21 -0.28,9.85 -0.8,14.4 -2.48,-1.69 -1.96,-5.31 -2.4,-8 -3.32,-19.91 -8.01,-59.75 -8.01,-60.01 v -8.01 c 4.51,-2.39 2.12,4.08 3.2,8.01 0.44,1.58 2.02,2.68 2.41,4.8 1.08,5.91 2.61,21.43 3.2,28.8 0.28,3.68 0.54,24.84 1.6,12 5.5,-17.85 7.18,-42.37 7.2,-63.21 2.27,1.55 1.11,14.54 0.8,18.41 -1.52,18.83 -3.16,38.32 -7.2,52.81 z" />
      <path
         id="path6058"
         d="m 208.85,382.49 c 2.61,8.48 -1.69,16.98 -2.4,24.8 -3.08,10 -5.5,20.65 -4.8,34.41 -8.39,-7.08 -6.81,-26.22 -12.13,-36.36 0.44,-1.16 -0.94,-4.14 0.8,-4 2.55,7.58 5.69,16.66 6.52,25.96 3.16,-15.78 4.59,-33.29 12.01,-44.81 z" />
      <path
         id="path6061"
         d="m 449.75,223.06 c -1.1,-5.17 -6.72,-7.06 -9.65,-10.21 -1.52,-1.63 -2.44,-5.09 -4,-6.4 -2.54,-2.15 -4.89,-4.27 -4.8,-6.4 10.56,4.37 23.43,13.37 31.21,23.2 5.28,-8.32 6.4,-37.07 6.4,-38.41 2.59,-1.34 2.58,-2.04 4,0.8 2.34,3.8 5.28,8.21 6.67,12.96 -0.86,3.76 -6.24,-6.91 -8.27,-9.76 -1.95,13.35 -2.33,34.74 -9.11,41.29 -4.96,-2.78 -7.48,-4.31 -12.45,-7.07 z" />
      <path
         id="path6064"
         d="m 416.66,189.36 c -0.22,3.68 -1.55,20.23 -0.52,25.89 h -0.05 c -0.15,4.12 -4.18,11.29 -4,12.8 -5.8,-1.95 -8.25,-9.49 -16.52,-12.11 -6.46,-1.54 -6.44,-9.62 -14.3,-9.08 1.42,3.54 4.54,8.83 6.1,11.88 15.23,6.66 23.55,21.17 28.72,14.11 4.2,-11.05 3.45,-30.86 3.59,-37.05 -0.48,-2.45 -2.32,-4.21 -3.02,-6.44 z" />
    </g>
  </g>
  <g
     id="g19838"
     transform="matrix(0.08863117,0,0,0.08863117,6.7309221,3.3028892)">
    <path
       id="path6067"
       fill-rule="evenodd"
       fill="#e6e6e6"
       d="m 307.34,5.9609 c -7.2,0.0141 -19.63,3.9545 -20.32,7.6111 1.11,3.516 7.47,10.486 4.17,15.303 -2.05,2.056 -13.12,7.247 -16,6.524 -2.65,-2.869 -1.49,-20.726 -0.74,-19.04 1.42,3.169 -1.29,-2.83 -2.86,-2.705 -2.18,-0.282 -6.46,1.557 -11.1,3.023 -4.64,1.467 -10.66,2.023 -11.36,4.755 -3.02,5.752 2.52,21.365 3.72,28.633 0.39,2.423 0.01,9.16 5.57,8.762 2.12,-1.116 3.02,-4.792 3.75,-6.452 0.39,-1.366 2.49,-3.957 3.92,-4.104 3.08,1.115 10.53,14.583 5.38,28.602 -6.24,2.398 -7.59,-4.207 -9.32,-2.682 -3.81,2.193 -3.09,8.382 -2.39,12.932 0.88,6.169 3.16,10.96 4.86,14.077 1.37,1.02 4.41,-0.56 6.24,-0.23 0.01,-0.06 0.11,-0.14 0.24,-0.24 0.49,0.06 1.09,0.12 1.71,0.03 4.29,0.07 8.33,-2.044 11.12,-1.158 4.23,3.298 -1.53,7.338 0.17,12.958 1.16,1.71 3.99,2.45 7.24,1.05 0.05,0.04 0.09,0.09 0.14,0.13 4.19,-0.53 11.68,-2.66 16.16,-5.67 2.44,-1.64 5.54,-5 5.54,-7.46 0,-3.509 -4.62,-5.043 -4.51,-6.975 1.05,-1.039 7.16,-0.464 10.78,-0.638 1.45,-2.615 -4.48,-21.47 -3.17,-22.856 1.98,-0.224 3.66,2.314 5.29,4.257 2,0.757 3.87,-0.197 4.89,-0.857 1.07,-5.997 -1.45,-29.515 -2.35,-32.453 -0.4,-0.937 -3.07,-2.235 -4.23,-2.487 -4.19,1.424 -3.61,6.609 -5.49,7.814 -7.05,-2.265 0.06,-24.854 -2.22,-38.34 -0.02,0.0042 -0.06,0.0183 -0.08,0.0224 -0.34,-0.6932 -1.07,-1.6365 -2.6,-2.0001 -0.68,-0.0946 -1.41,-0.1377 -2.15,-0.1364 z m -30.43,47.866 c 0.27,0.661 0.51,1.353 0.74,2.068 -0.24,-0.741 -0.49,-1.434 -0.74,-2.068 z" />
    <path
       id="path6070"
       fill-rule="evenodd"
       fill="#b3b3b3"
       d="m 313.56,46.53 c -0.57,0.398 -1.74,2.256 0.89,3.475 2.81,1.296 3.22,-3.471 4.1,-5.758 0.75,-1.97 3.33,-2.089 5,-2.728 2.32,3.06 6.08,28.035 2.57,32.578 -1.01,0.659 -3.47,2.106 -3.75,-0.398 -0.49,-4.451 -6.58,-7.366 -6.46,-3.263 -2.63,6.036 7.28,22.763 3.39,22.601 -3.63,-0.152 -10.02,-0.234 -10.6,0.454 -0.09,2.998 4.39,3.91 4.39,7.429 0,2.45 -3.18,5.28 -5.62,6.92 -4.49,3.02 -13.2,6.46 -17.41,6.26 -4.55,-1.37 -0.38,-6.74 0,-9.7 0.25,-1.96 -2.39,-4.898 -3.64,-5.605 -1.71,0.321 -8.63,1.06 -13.61,1.965 -1.17,0.21 -4.28,0.71 -4.72,0.91 1.97,-0.91 5.24,-2.562 4.39,-2.26 -1.66,0.6 -4.69,-1.828 -4.69,-1.828 0,0 -6.52,-14.546 -4.25,-17.576 1.57,-1.409 3.71,-1 4.7,-0.514 18.94,1.271 7.58,-34.791 -0.32,-31.636 -1.93,-0.76 -6.01,2.398 -5.59,4.573 -0.91,-0.33 -1.19,-0.313 -3.48,-0.606 -1.37,0.379 -3.47,-6.866 -4.12,-14.071 -0.57,-6.299 -1.79,-10.703 -1.49,-14.87 0.23,-3.155 17.58,-7.122 20,-6.515 5.59,1.398 -3.26,17.991 2.58,19.092 2.87,1.092 11.45,0.222 16.82,-3.94 7.42,-5.758 3.48,-16.154 -1.37,-17.122 -2.59,-1.965 19.85,-8.7884 20.75,-5.8678 3.34,10.869 -6.05,30.263 1.54,38.001 z" />
    <path
       id="path6403"
       fill="#231f20"
       d="m 311.22,43.736 c 0.34,0.908 0.92,1.711 1.56,2.448 0.38,0.436 1.2,0.903 1.77,0.742 1.97,-0.555 2.61,-3.735 3.18,-5.328 0.65,-1.83 2.34,-2.948 4.13,-1.87 2.31,1.392 2.64,4.669 3.02,7.046 0.28,1.804 0.51,3.616 0.73,5.43 0.1,0.866 0.2,1.734 0.29,2.602 0.07,0.689 0.23,1.79 0.31,2.484 0.13,1.189 0.77,13.849 -0.14,15.459 -0.43,0.758 -1.09,1.332 -1.94,1.542 -1.15,0.285 -2.04,-0.297 -2.7,-1.172 -0.97,-1.312 -1.99,-3.68 -3.87,-3.851 -2.07,-0.187 -2.95,1.519 -2.81,3.327 0.46,5.897 3.75,11.096 4.48,16.94 0.16,1.218 0.56,2.811 -1.03,2.993 -1.91,0.22 -3.85,-0.234 -5.75,-0.42 -1.34,-0.132 -3.57,-0.294 -4.28,1.19 -0.97,2.028 1.71,3.617 2.92,4.704 2.57,2.308 0.81,5.478 -1.24,7.368 -1.51,1.39 -3.37,2.28 -5.23,3.1 -3.79,1.69 -7.74,3.15 -11.77,4.16 -0.34,0.08 -0.68,0.36 -0.94,0.42 -0.48,0.12 -0.96,0.22 -1.44,0.32 -0.95,0.19 -1.94,0.35 -2.92,0.33 -0.71,-0.01 -1.42,-0.1 -2.1,-0.34 -0.28,-0.09 -0.54,-0.24 -0.77,-0.43 -0.27,-0.22 0.04,0.28 -0.06,-0.09 -0.07,-0.25 -0.31,-0.48 -0.44,-0.7 -1.18,-1.99 0.67,-4.59 1.44,-6.39 0.75,-1.75 1.02,-3.58 -0.25,-5.16 -1.15,-1.439 -3.37,-1.588 -5.05,-1.535 -2.14,0.067 -4.26,0.583 -6.34,1.035 -1.98,0.42 -4.04,0.82 -6.07,0.8 -2.08,-0.03 -3.38,-1.215 -4.35,-2.966 -1.62,-2.918 -2.49,-6.469 -3.12,-9.719 -0.61,-3.086 -0.92,-6.463 -0.7,-9.609 0.11,-1.486 1.12,-5.132 3.24,-3.775 1.88,1.206 3.51,2.625 5.76,3.133 2.13,0.482 3.1,-0.526 3.75,-2.457 0.5,-1.508 0.73,-3.176 0.89,-4.758 0.29,-2.993 -0.09,-6.132 -0.5,-9.094 -0.49,-3.568 -1.19,-7.24 -2.78,-10.501 -1.06,-2.188 -3.03,-4.32 -5.67,-3.353 -1.43,0.523 -2.12,2.046 -2.64,3.362 -0.67,1.672 -1.05,3.456 -1.92,5.038 -0.77,1.385 -2.33,2.26 -3.82,1.344 -1.48,-0.911 -1.96,-3.243 -2.31,-4.798 -0.4,-1.827 -0.57,-3.693 -0.77,-5.548 -0.33,-2.932 -1.13,-5.849 -1.73,-8.737 -0.62,-3.04 -1.26,-6.059 -2.04,-9.063 -0.62,-2.413 -1.41,-5.636 0.52,-7.67 1.52,-1.606 4.18,-2.342 6.2,-3.062 2,-0.715 4.01,-1.379 5.99,-2.168 3,-1.198 9.98,-4.425 11.8,0.02 1.23,3.011 0.28,6.91 -0.14,9.998 -0.36,2.584 -1.2,6.252 0.38,8.603 2.07,3.088 6.74,0.379 9.11,-0.762 2.15,-1.033 4.46,-1.96 6.52,-3.162 1.81,-1.061 2.84,-2.775 3.1,-4.827 0.3,-2.368 -0.45,-4.65 -1.78,-6.573 -1.22,-1.761 -3.87,-4.176 -3.14,-6.546 0.64,-2.118 3.99,-2.886 5.82,-3.4235 3.25,-0.9555 6.45,-2.4573 9.8,-2.9796 1.22,-0.1891 2.46,-0.2141 3.69,-0.2682 0.76,-0.0337 1.54,-0.1619 2.27,0.08 1.03,0.3359 1.52,1.5982 1.81,2.5255 0.86,2.7818 0.69,5.9108 0.59,8.7828 -0.14,3.911 -0.44,7.739 -1.02,11.615 -0.71,4.729 -1.27,9.565 0.36,14.174 0.29,0.81 1.59,0.461 1.3,-0.357 -2.39,-6.744 0.07,-13.79 0.52,-20.644 0.26,-4.008 0.52,-8.203 -0.07,-12.187 -0.24,-1.5806 -0.71,-3.2866 -1.88,-4.4403 -1.5,-1.4814 -3.99,-0.9068 -5.86,-0.7905 -3.32,0.2078 -6.31,1.4147 -9.45,2.4411 -2.38,0.7773 -4.92,1.2914 -7.06,2.6437 -1.8,1.14 -2.72,2.969 -2.04,5.053 0.76,2.361 2.79,4.143 4,6.263 1.11,1.941 1.23,4.892 0.01,6.798 -1.21,1.884 -3.99,2.598 -5.9,3.547 -2.21,1.098 -4.45,2.349 -6.86,2.978 -1.17,0.307 -2.37,0.085 -2.94,-1.055 -0.58,-1.168 -0.43,-2.748 -0.34,-4 0.12,-1.765 0.41,-3.516 0.64,-5.268 0.4,-2.992 1.02,-6.67 -0.55,-9.439 -2.26,-3.99 -8.16,-1.952 -11.44,-0.725 -1.97,0.741 -3.92,1.535 -5.92,2.217 -2.27,0.773 -4.57,1.549 -6.67,2.7 -1.85,1.006 -3.12,2.545 -3.33,4.691 -0.27,2.626 0.58,5.217 1.24,7.726 0.85,3.258 1.41,6.613 2.09,9.912 0.49,2.381 0.98,4.716 1.25,7.13 0.35,3.157 0.67,7.982 3.7,9.844 1.27,0.782 3.1,0.555 4.23,-0.364 1.29,-1.047 1.89,-2.718 2.41,-4.238 0.68,-1.969 1.9,-6.93 4.95,-4.838 1.09,0.744 1.75,2.185 2.24,3.358 0.69,1.665 1.15,3.43 1.53,5.19 0.75,3.485 1.16,7.079 1.22,10.644 0.02,1.109 -0.05,2.185 -0.21,3.276 -0.17,1.174 -0.43,4.984 -2.06,4.94 -2.38,-0.063 -4.3,-1.838 -6.17,-3.09 -1.43,-0.96 -3.08,-0.343 -4.06,1.02 -1.39,1.949 -1.32,4.658 -1.21,6.941 0.16,3.323 0.58,6.607 1.42,9.829 0.73,2.792 1.61,5.885 3.29,8.273 1.02,1.445 2.43,2.245 4.17,2.465 1.96,0.24 4.11,-0.24 6.03,-0.59 2.08,-0.39 4.12,-0.94 6.23,-1.15 1.82,-0.18 4.31,-0.25 5.28,1.63 0.93,1.81 -0.99,4.47 -1.64,6.1 -0.36,0.89 -0.57,1.86 -0.5,2.83 0.05,0.75 0.43,2.05 1.13,2.46 0.12,0.07 0.35,0.23 0.14,0.03 0.09,0.08 0.19,0.16 0.29,0.23 0.22,0.16 0.47,0.27 0.71,0.37 0.66,0.24 1.35,0.33 2.04,0.36 3.88,0.16 7.67,-0.83 11.31,-2.08 3.43,-1.18 7.03,-2.47 10.16,-4.33 2.19,-1.31 4.27,-3.22 5.07,-5.71 0.8,-2.472 -0.58,-4.576 -2.42,-6.075 -0.57,-0.463 -2.15,-1.501 -1.71,-2.425 0.3,-0.637 1.82,-0.469 2.36,-0.447 1.97,0.081 3.88,0.525 5.85,0.506 1.27,-0.013 2.56,-0.319 2.98,-1.654 0.2,-0.636 0.13,-1.37 0.07,-2.02 -0.11,-1.235 -0.29,-2.483 -0.55,-3.694 -0.73,-3.368 -2.3,-6.496 -3.21,-9.814 -0.31,-1.109 -0.48,-2.254 -0.69,-3.383 -0.16,-0.866 -0.43,-2.293 0.64,-2.662 1.02,-0.355 1.77,0.717 2.29,1.428 0.62,0.838 1.16,1.735 1.86,2.508 1.16,1.271 3.33,1.217 4.68,0.314 1.39,-0.926 2.29,-2.735 2.21,-4.295 -0.1,-2.191 -0.01,-4.121 -0.14,-6.25 -0.11,-1.687 -0.11,-5.039 -0.39,-7.396 -0.1,-0.867 -0.17,-1.738 -0.26,-2.607 -0.35,-3.367 -0.78,-6.727 -1.34,-10.066 -0.53,-3.112 -3.23,-7.848 -7.05,-5.852 -1.92,1.005 -2.27,3.392 -2.94,5.215 -0.39,1.03 -0.43,2.16 -1.49,2.254 -0.81,0.07 -1.82,-1.99 -2,-2.456 -0.15,-0.38 -1.2,-0.122 -1.05,0.267 z" />
    <path
       id="path6411"
       fill="#231f20"
       d="m 291.25,13.809 c 1.01,0.971 2.26,1.639 3.25,2.644 1.54,1.555 2.1,4.045 2.3,6.16 0.4,4.194 -2.16,7.056 -5.59,9.019 -0.16,0.086 -0.02,0.297 0.13,0.228 3.68,-1.679 6.09,-4.817 5.9,-8.96 -0.1,-2.02 -0.68,-4.357 -1.89,-5.998 -0.52,-0.703 -1.21,-1.264 -1.92,-1.776 -0.67,-0.487 -1.52,-0.812 -2.14,-1.353 -0.02,-0.021 -0.06,0.013 -0.04,0.036 z" />
    <path
       id="path6419"
       fill="#231f20"
       d="m 253.23,22.882 c -0.46,5.901 0.99,11.861 1.68,17.704 0.28,2.409 0.64,4.834 1.39,7.146 0.49,1.512 1.22,3.94 2.46,4.163 0.09,0.015 0.12,-0.109 0.04,-0.129 -1.27,-0.303 -2.13,-3.557 -2.58,-5.306 -0.6,-2.301 -0.86,-4.686 -1.1,-7.045 -0.56,-5.496 -1.85,-10.982 -1.72,-16.532 0,-0.112 -0.16,-0.109 -0.17,-10e-4 z" />
    <path
       id="path6427"
       fill="#231f20"
       d="m 263.5,79.703 c -0.37,3.953 0.8,8.274 2.1,11.961 0.85,2.401 2.97,7.75 6.37,6.971 0.08,-0.018 0.06,-0.136 -0.02,-0.139 -3.66,-0.105 -5.29,-5.09 -6.23,-7.906 -1.14,-3.405 -2.12,-7.272 -2.13,-10.888 0,-0.057 -0.09,-0.055 -0.09,0.001 z" />
    <path
       id="path6435"
       fill="#231f20"
       d="m 286.04,98.594 c 1.56,0.148 2.61,1.01 3.27,2.396 0.4,0.82 0.75,2.02 0.57,2.93 -0.3,1.48 -0.77,2.93 -1.1,4.41 -0.3,1.35 -1.33,6.61 1.64,5.1 0.11,-0.05 0.03,-0.22 -0.09,-0.19 -2.94,0.77 -0.65,-6.55 -0.35,-7.78 0.36,-1.43 0.41,-2.36 -0.09,-3.81 -0.6,-1.736 -1.92,-3.143 -3.85,-3.109 -0.03,0 -0.03,0.05 0,0.053 z" />
    <path
       id="path6443"
       fill="#231f20"
       d="m 274.29,78.576 c 5.37,-2.984 4.84,-11.208 3.89,-16.302 -0.62,-3.336 -1.71,-6.623 -3.31,-9.622 -0.64,-1.216 -1.41,-2.376 -2.32,-3.41 -0.39,-0.442 -0.83,-0.835 -1.29,-1.194 -0.26,-0.195 -2.26,-1.024 -2.89,-0.956 -0.13,0.015 -0.14,0.187 0,0.213 2.63,0.51 3.67,1.995 4.23,2.672 0.88,1.063 1.58,2.277 2.2,3.504 1.42,2.791 2.36,5.844 2.96,8.909 1,5.049 1.63,12.993 -3.49,16.162 -0.01,0.009 0,0.033 0.02,0.024 z" />
    <g
       id="g19166"
       fill-rule="evenodd"
       transform="matrix(0.39011,0,0,0.39011,353.88,-24.773)">
      <path
         id="path18234"
         d="m -128.91,172.5 c -0.44,0.05 -0.9,0.21 -1.4,0.44 -18.66,8.31 -20.67,3.53 -22.13,7.47 -0.33,6.97 2.29,-3.79 7.19,33.68 1.96,14.98 3.45,28.54 3.87,32.38 -10.78,2.76 -11.16,2.31 -13.28,7.56 -0.51,1.29 7.29,1.61 8.63,1.25 0,0 29.58,-8.29 38.03,-12.06 4.36,-1.94 -5.31,-5.28 -5.31,-5.28 -0.89,0.3 -1.65,0.56 -2.5,0.84 l -7.22,-54.19 c -1.27,-8.49 -2.95,-11.97 -5.44,-12.09 -0.14,-0.01 -0.29,-0.02 -0.44,0 z m -0.59,8.22 c 0.47,-0.03 0.79,0 0.91,0.09 0.31,0.25 1.12,6.3 2.09,14.25 -4.34,0.97 -13.98,3.22 -15.97,3.72 -0.94,-7.64 -1.54,-13.46 -1.34,-13.9 0.41,-0.94 11.04,-3.93 14.31,-4.16 z m 3.84,21.22 c 0.52,4.41 1.06,9.1 1.57,13.68 l -15.69,3.94 c -0.56,-4.23 -1.13,-8.56 -1.66,-12.65 3.11,-1.14 12.28,-3.63 15.78,-4.97 z m 2.47,21.75 c 1.02,9.35 1.66,15.46 1.81,16.93 -6.11,1.98 -11.02,3.43 -14.93,4.5 -0.2,-1.43 -1.06,-7.73 -2.35,-17.24 z" />
      <path
         id="path18242"
         d="m -177.34,171.44 -3.07,1.4 c -0.95,0.52 -4.67,1.03 -2.12,2.82 0.96,0.67 2.33,0.57 3.72,0.87 l 1.87,8.81 c -7.42,2.18 -14.65,4.36 -15.09,5.25 -0.7,1.15 5.29,5.06 7.84,5.03 2.6,-0.4 11.88,-3.99 17.81,-6 0,0 -3.4,13.53 -5.4,21.72 -4.07,7.85 -8.06,12.19 -14.78,16.72 -1.08,0.75 -1.81,3.77 1.22,2.22 7.21,-3.08 9.08,-5.46 12.87,-8.81 1.66,9 3.03,18.04 5.38,26.91 -1.23,-0.5 -2.91,-0.47 -3.07,0.84 -0.2,1.75 6.15,8.12 7.35,8.19 1.77,-0.21 3.94,-3.27 3.59,-6.13 -2.87,-13.9 -3.08,-23.24 -5.84,-32.25 3.46,0.89 7.17,3.02 9.72,4.35 0,0 3.1,4.31 4.46,4.09 1.37,-0.23 2.64,-1.89 2.41,-3.25 l 0.09,-4.78 c -0.22,-1.98 -7.31,-4.15 -16.84,-7.44 1.78,-7.27 3.76,-11.72 4.97,-26.06 0.33,-3.34 -0.91,-4.72 -2.72,-4.72 -0.82,0 -1.76,0.27 -2.72,0.78 -1.76,0.55 -3.98,1.2 -6.19,1.84 -0.84,-3.44 -1.05,-8.15 -2.12,-9.59 -0.46,-0.69 -2.11,-2.83 -3.34,-2.81 z" />
    </g>
  </g>
  <g
     id="g13405"
     transform="matrix(0.04569999,-0.00735318,0.00735318,0.04569999,-1.4887541,2.5839115)">
    <path
       id="path5866"
       fill-rule="evenodd"
       fill="#b3b3b3"
       d="m 155.8,69.94 c -2.6,0.032 -4.65,0.675 -5.1,0.675 -19.04,19.227 -17.74,48.015 -16.85,59.875 -4.05,1.73 -4.2,4.21 -4.65,6.7 6.41,-1.95 11.11,-0.78 13.7,-1.23 4.31,3.45 6.57,3.8 8.96,8.34 6.89,0.12 6.38,5.24 10.84,12.72 -0.84,4.78 0.23,10.55 -4.79,20.55 -0.99,1.67 -7.08,5.25 -8.86,5.96 -12.35,-0.72 -14.32,3.35 -17.34,6.56 -9.91,23.04 -5.98,28.66 -4.74,41.28 -1.64,0.46 -5.94,0.87 -7.43,0.64 1.53,5.81 25.71,1.9 29.54,1.41 6.09,-18.78 19.62,-52.29 39.74,-59.37 5.2,-14.61 16.86,-32.48 33.91,-47.95 15.7,-14.25 23.28,-13.75 24.64,-18.63 -1.62,-2.15 -2.01,-2.19 -5.21,-5.28 -14.9,-14.35 -20.19,-11.076 -22.95,-11.431 0.72,1.411 2.08,3.132 3.49,3.854 5.44,13.627 3.42,20.237 -1.7,28.227 -4.13,4.61 -6.28,2.1 -8.02,4.92 -1.5,2.44 -5.29,1.35 -4.1,-0.67 -8.63,3.21 -16.65,2.83 -19.62,-2.23 -8.23,-8.39 -7.89,-18.8 -3.43,-38.872 -3.13,-9.045 -6.48,-8.455 -9.53,-8.975 -4.08,-3.453 -7.1,-4.678 -13.94,-5.475 -2.19,-1.287 -4.54,-1.622 -6.56,-1.598 z" />
    <path
       id="path5869"
       fill-rule="evenodd"
       fill="#e6e6e6"
       d="m 220.05,124.03 c -1.48,1.75 -2.74,2.25 -5.63,2.95 -2.62,4.66 -7.73,2.04 -5.56,0.02 6.51,-6.16 8.14,-21.28 4.2,-32.304 1.42,-2.239 2.97,-3.544 6.5,-3.691 8.55,4.196 9.82,26.135 0.49,33.025 z" />
    <path
       id="path5872"
       fill-rule="evenodd"
       fill="#e6e6e6"
       d="m 149.57,184.12 c -19.39,-3.09 -21.48,16.45 -23.94,27.13 -0.11,5.65 1.32,16.04 1.8,20.33 -3.11,0.62 -6.16,0.8 -7.99,0.49 -6.53,-12.65 -1.2,-53.42 10.16,-54.86 2.23,0.44 7.7,5.93 14.61,2.54 7.47,-8.03 11.73,-9.95 8,-35.35 6.09,-2.62 8.82,8.93 11.14,12.66 -2.11,25.38 -7.23,22.77 -13.78,27.06 z" />
    <path
       id="path5875"
       fill-rule="evenodd"
       fill="#e6e6e6"
       d="m 129.48,136.93 c -0.04,1.48 -4.08,3.33 -5.65,-5.7 -3.5,-13.33 0.47,-33.047 4.27,-41.988 3.07,-7.238 6.95,-22.013 12.5,-25.981 19.36,-0.708 33.19,7.998 40.57,14.993 0,0.194 -1.86,-0.938 -5.09,-1.228 -5.55,-4.358 -9.27,-4.807 -13.8,-5.299 -3.71,-2.46 -8.88,-1.493 -11.48,-0.927 -9.24,8.161 -14.98,23.708 -16.78,38.06 -0.66,9.01 -0.21,16.27 0.13,21.66 -3.16,1.59 -3.97,2.71 -4.67,6.41 z" />
    <path
       id="path6354"
       fill="#231f20"
       d="m 248.02,107.06 c -1.67,-2.21 -3.15,-4.56 -4.96,-6.66 -2,-2.321 -4.66,-4.137 -7.1,-5.968 -4.44,-3.341 -9.93,-6.572 -15.73,-5.577 -2.63,0.452 -5.46,1.464 -7.2,3.59 -1.46,1.786 -1.3,4.083 -0.83,6.196 0.7,3.109 1.57,5.899 1.69,9.139 0.14,3.98 -0.56,8.02 -1.51,11.87 -2.4,9.72 -13.9,10.2 -20.85,5.16 -5.02,-3.64 -6.69,-10.96 -7.01,-16.77 -0.2,-3.53 0.07,-7.19 0.6,-10.677 0.54,-3.51 1.88,-6.705 2,-10.306 0.13,-3.729 -3.07,-7.186 -5.57,-9.536 -3.78,-3.546 -8.34,-6.129 -12.94,-8.429 -4.54,-2.263 -9.29,-4.087 -14.04,-5.836 -5.01,-1.845 -10.83,-3.666 -15.53,-0.169 -4.15,3.084 -5.76,8.854 -7.53,13.456 -2.72,7.091 -5.91,13.951 -8,21.276 -1.8,6.301 -2.47,12.971 -2.75,19.501 -0.25,5.73 -0.27,12.4 2.1,17.76 1.82,4.12 5.12,4.15 9.08,3.42 3.03,-0.56 6.12,-1.21 9.2,-0.58 3.08,0.64 6.2,2.94 8.04,5.44 3.64,4.96 3.99,12.18 3.18,18.06 -0.84,6.03 -3.44,14.78 -9.8,17.06 -0.61,0.21 -3.5,0.83 -5.98,1.2 -0.05,0.01 0,0.11 0,0.16 2,0.75 5.36,-0.38 5.58,-0.68 -2.97,0.83 -5.92,0.49 -8.84,-0.39 -1.23,-0.37 -3.05,-1.59 -4.37,-1.48 -0.84,0.08 -0.85,1.4 0,1.33 1.25,-0.11 3.62,1.35 4.9,1.72 2.88,0.84 5.85,1.21 8.8,0.6 -0.34,-0.14 -5.59,-0.49 -5.94,-0.63 0.02,0.04 0.1,0.08 0.07,0.11 -0.78,0.93 5.86,0.82 6.49,0.6 10.51,-3.76 13.35,-19.15 12.04,-28.83 -0.7,-5.27 -2.6,-10.37 -6.9,-13.71 -4.62,-3.58 -9.21,-4.18 -14.88,-3.25 -1.89,0.31 -4.06,1.09 -5.99,0.77 -2.23,-0.38 -2.74,-4.15 -3.12,-5.89 -1.4,-6.45 -0.88,-13.42 -0.2,-19.93 0.77,-7.43 2.77,-14.423 5.44,-21.382 2.38,-6.169 4.68,-12.614 7.58,-18.556 1.26,-2.567 3,-5.139 5.85,-6.022 3.1,-0.96 6.85,0.476 9.75,1.515 4.86,1.737 9.63,3.694 14.34,5.79 4.83,2.149 9.86,4.572 13.94,7.982 1.55,1.303 2.7,2.731 3.45,4.592 1.19,2.958 -0.49,6.304 -1.42,9.119 -2.06,6.212 -2.09,13.742 -0.93,20.122 0.92,5.08 3.28,10.48 7.45,13.7 6.22,4.79 15.79,5.72 21.77,0.07 3.74,-3.53 4.45,-9.1 5.08,-13.91 0.46,-3.48 0.34,-6.96 -0.2,-10.42 -0.39,-2.43 -2.36,-5.655 -1.28,-8.087 1.32,-3.012 6.73,-3.346 9.45,-2.885 2.99,0.505 5.69,2.162 8.16,3.833 2.5,1.696 5.16,3.559 7.41,5.589 2.35,2.12 4.27,4.71 6.47,6.98 0.73,0.76 2.15,-0.27 1.49,-1.15 z" />
    <path
       id="path6362"
       fill="#231f20"
       d="m 126.98,178.33 c -5.98,1 -7.6,9.3 -8.67,14.33 -1.71,8.05 -2.24,16.37 -2.45,24.58 -0.18,7.01 -0.28,16.75 8.28,18.29 7.64,1.37 15.79,0.49 23.49,0.03 0.16,-0.01 0.33,-0.02 0.5,-0.03 0.39,-0.02 0.86,-0.21 1.03,-0.6 -0.13,0.3 -0.68,0.2 -0.05,0.15 1.01,-0.08 1.02,-1.53 0,-1.59 -0.6,-0.03 -0.16,-0.14 0.05,0.23 -0.2,-0.35 -0.62,-0.62 -1.03,-0.59 -7.01,0.44 -14.04,1.01 -21.06,0.52 -1.51,-0.11 -3.02,-0.3 -4.48,-0.73 -2.03,-0.59 -3.13,-2.86 -3.87,-4.68 -1.36,-3.39 -1.05,-7.39 -1.01,-11 0.09,-7.56 0.45,-15.18 1.66,-22.66 0.57,-3.56 1.35,-7.16 2.8,-10.48 0.88,-2.01 2.53,-4.99 4.87,-5.55 0.15,-0.03 0.09,-0.25 -0.06,-0.22 z" />
    <path
       id="path6370"
       fill="#231f20"
       d="m 211.52,132.53 c 12.62,-6.13 20.32,-24.45 12.25,-36.937 -0.22,-0.338 -0.72,-0.044 -0.54,0.313 2.46,4.914 2.23,11.694 1.25,16.954 -1.55,8.27 -6.36,14.65 -13,19.61 -0.03,0.03 0,0.08 0.04,0.06 z" />
    <path
       id="path6378"
       fill="#231f20"
       d="m 141.58,184.25 c -4.01,0.99 -7.5,3.37 -10.04,6.61 -1.37,1.76 -1.93,3.8 -2.54,5.91 -0.85,2.94 -1.53,5.92 -2.31,8.88 -1.39,5.23 -1.37,10.77 -0.98,16.13 0.25,3.44 0.21,7.3 2.3,10.1 0.4,0.54 1.26,0.08 0.92,-0.54 -0.58,-1.03 -0.72,-2.86 -0.92,-4.01 -0.32,-1.83 -0.42,-3.7 -0.56,-5.55 -0.36,-4.81 -0.68,-10.13 0.58,-14.84 1.24,-4.59 1.67,-9.92 3.81,-14.2 1.79,-3.56 5.97,-7.22 9.74,-8.46 0.02,0 0.02,-0.04 0,-0.03 z" />
    <path
       id="path6386"
       fill="#231f20"
       d="m 147.5,184.29 c 11.78,-0.43 16.19,-12.56 17.04,-22.64 0.43,-5.08 0.14,-10.46 -1.36,-15.36 -1.8,-5.87 -8,-11.18 -14.43,-10.4 -0.42,0.05 -0.49,0.55 -0.1,0.71 2.71,1.1 5.4,1.73 7.85,3.43 2.78,1.92 4.47,4.98 5.3,8.2 1.12,4.33 1.27,8.97 1.01,13.42 -0.57,9.71 -4.5,20.76 -15.32,22.56 -0.05,0.01 -0.03,0.08 0.01,0.08 z" />
    <path
       id="path6394"
       fill="#231f20"
       d="m 161.78,71.449 c -3.93,-2.074 -8.16,-2.647 -12.13,-0.389 -4.21,2.394 -6.58,7.635 -8.32,11.902 -2.77,6.827 -4.61,14.087 -6.45,21.208 -1.12,4.31 -1.44,8.85 -1.44,13.3 0,4.61 -0.15,9.27 0.37,13.86 0.04,0.3 0.48,0.32 0.48,0 0.03,-3.68 -0.18,-7.36 -0.07,-11.05 0.13,-4.35 0.98,-8.6 1.82,-12.85 1.34,-6.78 3.32,-13.587 5.46,-20.155 1.58,-4.878 3.47,-10.096 7.02,-13.917 3.7,-3.975 8.5,-3.671 13.21,-1.803 0.07,0.026 0.11,-0.075 0.05,-0.106 z" />
  </g>
</svg>
